<?xml version="1.0" encoding="UTF-8"?><svg id="b" height="400" width="1800" xmlns="http://www.w3.org/2000/svg" viewBox="0 0 2527.04 830.19"><defs><style>.d{fill:#aaa;}.d,.e{stroke-width:0px;}.e{fill:#646464;}</style></defs><g id="c"><path class="d" d="M2.39,470.69l76.18,23.49.1-.02,84.35-18.12,72.17,65.67,24.7-21.44,54.55,24.94.93,147.16.52-.21,133.46-53.67,2.48,1.72-1.21-1.35,94.05,30.34,49.12,157.86.09-2.07,77.12-112.04.19.17.08-.49,68.93-36.44.29-.02v-.25s46.76-72.35,46.76-72.35l97.47-4.59.02-.34,2.28-32.29,56.21-20.94,104.71,103.4.22-.52,56.42-132.31,2.97-.54-1.81-.1,87.96-45.05,58.77,30.87,19.91,142.77-1.71-.12,1.8.79.11.79.38-.57,126.4,55.33.07.18.2-.06.14.06.11-.13,131.45-38.25h.17s.04-.06.04-.06l.25-.07-.08-.22,72.25-123.83,94.77-35.89,115.82,34.25-1.3-1.1-21.23-84.89,2.37-31.91,64.64-27.15.66.45-.17-.66.82-.34-.96-.2-35.45-137.4,33.34-17.93,153.77,47.69.09.1h.06s85.08,59.23,85.08,59.23l-25.18-75,79.09-20.81,92.39,41.63,56.7,104.32-.07.12.13.09.59,54.93,103.47,19.07.98.69-59.09-149.97,24.08-20.75,66.23,27.05-.63-.96-13.57-70.76.05-.04,103.15-79.93-79.16,9.4-.08.05-69.76,50.74-.94-.4.08.12-91.74-30.51-.14.3-13.75,29.3-59.98-.69-60.48-134.16-.39.4-100.25,103.15-2.97-.56,1.65.75-98.28,10.37-107.32-122.62.03-.17-.23-.06-1.36-1.56.52,1.33-30.33-8.27-3.16-73.74-122.44,40.29,1.1.3,56.67,76.94-107.11,38.34.46.43,88.8,82.5,29.1,124.66-87.15,43.65.12.32,11,30.44-42.9,41.92-137.63-52.1v.56s2.05,143.83,2.05,143.83l-2.5,1.7,1.7-.64-34.34,42.45-124.89-74.9-93.35-102.03-.02-.17-.15-.02-.11-.11-.15.08-135.68-18.3-.15-.08-.07.05-.26-.04v.23s-116.23,83.93-116.23,83.93l-101.18-5.59-92-78.24.75,1.53-14.99,86.21-15.09,28.21-70.1-1.37-.42-.68-.11.67-.89-.02.8.58-23.27,139.97-37.74,2.88-121.26-105.91-.04-.12h-.09s-.16-.22-.16-.22l-.17.16-141.53-22.84-67.6-75.5-9.73-120.38-.55,1.61-71.56,50.36-30.62,9.28-49.59-51.57.18,1.14-16.27,70.19h-.07S2.39,470.69,2.39,470.69ZM78.47,493.34l-73.23-22.58,123.18-30.41-49.95,52.99ZM145.74,371.18l9.82,60.34-25.6,7.76,15.78-68.09ZM194,419.88l-37.71,11.42-9.92-60.94,47.62,49.52ZM235.01,540.52l-69.82-63.54,79.21,36.21-9.39,27.33ZM163.47,475.36l-7.04-43.3,38.17-11.56,60.15,62.55-10.1,29.42-81.18-37.11ZM277.16,505.26l29.46-25.57,7.67,64.2-37.13-38.63ZM276.64,504.71l-21.01-21.85,12.39-36.08,38.32,32.15-29.69,25.78ZM276.06,505.21l-16.31,14.16-14.4-6.58,10-29.12,20.72,21.54ZM195.42,420.25l30.11-9.12,41.86,35.12-12.36,35.99-59.61-61.99ZM296.58,361.22l-28.93,84.25-41.41-34.75,70.34-49.5ZM297.09,362.09l9.37,115.96-38.19-32.04,28.82-83.92ZM373.68,554.07l-58.52-9.44-7.72-64.55,66.24,73.99ZM374.49,554.97l72.46,80.93-130.53-90.3,58.07,9.37ZM637.05,683.28l-37.24,2.85-80.7-105.86,117.94,103.01ZM669.14,711.31l-67.7-24.54,36.42-2.78,31.28,27.32ZM675.73,681.09l-5.07,30.53-31.73-27.71,36.81-2.81ZM676.52,681.03l13.5-1.03-18.4,30.46,4.89-29.43ZM676.64,680.26l23.11-139.03,37.63,60.35-.04.06-46.85,77.56-13.86,1.06ZM739.7,675.44l-48.26,3.69,46.12-76.35,2.14,72.67ZM787.09,602.75l-35.6-25.64,18.82-35.17,86.77,1.7,13.66,27.94-83.64,31.16ZM871.07,572.27l12.69,25.96-94.31,4.44,81.61-30.41ZM942.2,544.55l-53.57-1.06,2.75-38.91,50.83,39.97ZM887.87,543.47l-30.31-.59-16.75-34.27,49.83-4.36-2.77,39.22ZM887.81,544.24l-1.52,21.55-14.84,5.53-13.52-27.66,29.88.58ZM785.8,602.76l-47.35-1.28,12.67-23.68,34.67,24.97ZM700.89,541.61l49.61,35.73-12.62,23.59-36.99-59.31ZM769.45,541.92l-18.59,34.74-50.11-36.08,68.69,1.34ZM770.71,541.18l14.84-27.74,54.43-4.76,16.71,34.18-85.98-1.68ZM800.51,427.91l39.12,80.04-53.85,4.71,14.73-84.74ZM890.1,503.53l-49.66,4.35-38.96-79.71,88.62,75.37ZM991.39,509.76l-48.06,34.7-51.1-40.18,99.16,5.48ZM992.6,509.82l108.46,5.99-156.15,28.45,47.69-34.44ZM1336.54,544.44l-83.38-43.8-7.78-55.83,91.16,99.64ZM1462.94,621l-27.33,33.78-54.96-3.66-41.59-104.41,123.88,74.29ZM1497.3,433.61l136.13,51.53-134.1,91.23-2.03-142.76ZM1815,220.37l-71.93-97.65,66.72-23.88,5.21,121.53ZM1810.53,98.57l29.6-10.6-24.46,130.3-5.14-119.7ZM1798.45,349.59l-44.45,18.28,13.19-83.53,31.26,65.26ZM1724.67,243.22l-9.08-38.9,99.14,17.55-47.77,60.64-42.29-39.29ZM1815.56,223.63l7.46,28.88-11.93,6.42,4.47-35.3ZM1810.26,259.37l-41.81,22.49,46.44-58.94-4.62,36.45ZM1810.14,260.3l-11.22,88.49-31.41-65.57,42.63-22.93ZM1798.62,350.35l-1.99,26.79-41.82-8.78,43.81-18.01ZM1796.58,377.91l-2.95,39.78-80.01,33.61-23.81-20.01,63.84-62.38,42.93,9.01ZM1689.22,430.79l-22.12-18.59,84.41-42.27-62.29,60.87ZM1712.83,451.62l-27.55,11.57-7.34-20.31,11.33-11.07,23.57,19.81ZM1713.48,452.17l29.2,24.54-43.79,24.18-13.37-36.98,27.95-11.74ZM1698.09,500.9l-62.66-15.94,49.41-20.74,13.26,36.69ZM1633.06,486.3l-29.65,50.82-101.58,38.47,131.23-89.29ZM1677.33,443.47l7.24,20.03-48.62,20.43,41.39-40.45ZM1677.65,442.09l-10.4-28.78,21.42,18.01-11.02,10.77ZM1724.98,244.55l41.61,38.66-13.14,83.28-28.47-121.94ZM1742.31,122.99l72.24,98.08-99.97-17.7.13.56,8.95,38.36-87.51-81.3,106.15-38ZM1686.36,45.74l122.58,33.41.81,18.89-67.15,24.04-56.23-76.34ZM1808.9,78.35l-122.18-33.3,119.07-39.19,3.11,72.49ZM1839.36,87.44l-28.86,10.34-.79-18.42,29.65,8.08ZM1890.52,216l-74.62,5.19,24.86-132.42,49.76,127.23ZM1947.43,210.01l-56.11,5.92-49.53-126.65,105.65,120.72ZM2009.52,280.96l-117.2-64.36,55.73-5.88,61.47,70.25ZM1948.97,210.62l98.49-10.4-36.34,81.41-62.15-71.01ZM2208.18,229.85l-159.34-30.32,99.52-102.38,59.82,132.7ZM2291.4,301.14l-48.06-13.87,16.7-35.6,28.07,11.46,3.29,38ZM2292.25,302.18l51.94,14.99-44.25,73.76-7.69-88.75ZM2399.38,269.38l-30.21,26.04-80.34-32.81-2.68-30.99,89.25,1.03,23.98,36.73ZM2376.6,233.1l43.71,18.24-20.35,17.54-23.36-35.78ZM2283.58,202.07l89.59,29.79-87.09-1.01-2.5-28.79ZM2288.03,262.29l-27.66-11.3,9.17-19.56,15.84.18,2.66,30.67ZM2209.73,231.12l49.6,20.26-16.57,35.32-33.03-55.58ZM2207.1,230.41l-56.89,14.97-99.03-44.62,155.92,29.66ZM2268.7,231.42l-9.04,19.28-48.83-19.95,57.87.67ZM2269.9,230.67l13-27.7,2.41,27.88-15.41-.18ZM2376.37,232.18l68.39-49.74-24.04,68.25-44.35-18.51ZM2521.91,172.73l-100.29,77.72,24.19-68.69,76.1-9.03ZM2433.81,320.71l-33.43-51.19,20.26-17.46,13.16,68.65ZM2369.96,295.74l29.84-25.72,33.76,51.69-63.6-25.97ZM2344.68,316.52l-52.5-15.15-3.28-37.91,79.61,32.52-23.83,20.54ZM2402.67,464.92l-102.49-72.89,44.53-74.23,57.97,147.12ZM2300.63,446.63l-.56-52.96.14.26-.09-1,101.75,72.36-101.24-18.66ZM2243.58,288.13l47.9,13.82,7.66,88.39-55.56-102.21ZM2151.32,245.87l57.33-15.08,33.21,55.88-90.54-40.8ZM2070.81,266.26l-22.09-65.78,100.32,45.2-78.23,20.58ZM2012.12,282.49l58.19-15.31,24.46,72.87-82.66-57.56ZM2011.9,281.76l36.13-80.94,22.04,65.64-58.17,15.3ZM1858.18,234.47l32.89-17.69,116.67,64.07-149.56-46.38ZM1817.49,221.85l71.83-5-32.16,17.3-39.67-12.3ZM1823.7,252.14l-7.73-29.97,40.24,12.48-32.51,17.49ZM1858.41,389.74l-58.86-39.92v-.07s11.41-89.9,11.41-89.9l12.24-6.58,35.21,136.47ZM1857.22,389.85l-59.83-12.56,1.98-26.68,57.85,39.24ZM1794.42,417.35l2.91-39.29,60.43,12.68-63.34,26.61ZM1793.57,418.54l-2.33,31.37-47.84,26.41-29.13-24.48,79.29-33.3ZM1812.22,534.17l-68.19-57.32,47.32-26.13,20.87,83.44ZM1699.67,501.34l43.64-24.09,67.92,57.09-111.56-32.99ZM1604.55,536.69l29.88-51.21,63,16.03-92.88,35.17ZM1499.45,577.31l103.36-39.14-71.46,122.48-31.9-83.34ZM1530.52,660.64l-66.44-39.84,34.75-42.95,31.69,82.79ZM1529.72,661.05l-93.18-6.21,27.06-33.45,66.12,39.65ZM1400.71,699.13l35.25-43.57,93.14,6.21-128.39,37.36ZM1380.96,651.9l54.06,3.6-35.26,43.59-18.79-47.19ZM1274.96,644.84l105.17,7,18.82,47.27-123.99-54.27ZM1273.49,643.98l64.72-97.37,41.6,104.45-106.32-7.08ZM1253.29,501.57l84.45,44.37-64.7,97.33-19.75-141.7ZM1194.52,469.84l50-25.61,7.8,55.98-57.81-30.37ZM1111.05,425.99l132.52,17.87-49.88,25.55-82.64-43.42ZM1192.86,469.83l-88.15,45.15,4.6-89.04,83.55,43.89ZM1103.94,515.21l-110.35-6.09,114.96-83.02-4.61,89.12ZM944.1,545.18l159.57-29.07-56,131.34-103.57-102.27ZM887.08,565.49l1.5-21.24,52.74,1.03-54.23,20.21ZM886.23,566.62l-2.15,30.52-12.29-25.14,14.44-5.38ZM740.44,674.55l-2.13-72.32,48.04,1.3-45.9,71.02ZM671.96,711.38l19-31.45,47.34-3.62-66.33,35.07ZM593.94,823.53l6.06-136.47,70.33,25.49-76.39,110.99ZM545.55,669.48l53.7,17.32-6.03,135.85-47.67-153.17ZM517.54,579.45l81.06,106.33-53.33-17.2-27.74-89.13ZM544.38,668.3l-94.25-30.41,66.21-59.7,28.04,90.11ZM449.41,637.51l-73.72-82.34,140,22.59-66.27,59.75ZM316.11,691.23l-.92-145.55,133.38,92.28-132.47,53.27ZM260.51,519.72l16.08-13.96,36.56,38.02-52.64-24.06ZM259.11,519.92l-23.11,20.06,9.09-26.47,14.02,6.41ZM162.55,474.46l-32.57-34.39,25.71-7.79,6.86,42.17ZM162.38,475.39l-82.68,17.76,49.64-52.65,33.04,34.89Z"/><path class="e" d="M2236.08,288.93c.78,3.71,4.42,6.09,8.13,5.31,3.71-.78,6.09-4.42,5.31-8.13-.78-3.71-4.42-6.09-8.13-5.31-3.71.78-6.09,4.42-5.31,8.13Z"/><path class="e" d="M2293.53,448.36c.78,3.71,4.42,6.09,8.13,5.31,3.71-.78,6.09-4.42,5.31-8.13-.78-3.71-4.42-6.09-8.13-5.31-3.71.78-6.09,4.42-5.31,8.13Z"/><path class="e" d="M2041.36,201.18c.78,3.71,4.42,6.09,8.13,5.31,3.71-.78,6.09-4.42,5.31-8.13-.78-3.71-4.42-6.09-8.13-5.31-3.71.78-6.09,4.42-5.31,8.13Z"/><path class="e" d="M2277.92,202.62c.6,2.89,3.44,4.73,6.32,4.13,2.89-.6,4.74-3.43,4.13-6.32-.6-2.89-3.44-4.74-6.32-4.13-2.88.61-4.73,3.44-4.13,6.32Z"/><path class="e" d="M2143.25,97.57c.6,2.89,3.44,4.74,6.32,4.13,2.89-.6,4.74-3.43,4.13-6.32-.6-2.89-3.43-4.74-6.32-4.13-2.88.61-4.73,3.44-4.13,6.32Z"/><path class="e" d="M2429.32,323.63c.6,2.89,3.44,4.74,6.32,4.13,2.88-.61,4.74-3.44,4.13-6.32-.61-2.89-3.44-4.73-6.32-4.13-2.89.61-4.74,3.43-4.13,6.32Z"/><path class="e" d="M2339.55,318.04c.61,2.89,3.44,4.74,6.32,4.13,2.89-.61,4.74-3.44,4.13-6.32-.6-2.89-3.44-4.73-6.32-4.13-2.89.6-4.74,3.43-4.13,6.32Z"/><path class="e" d="M1885.84,217.44c.61,2.89,3.44,4.74,6.33,4.13,2.88-.61,4.73-3.44,4.13-6.32-.61-2.89-3.44-4.74-6.32-4.13-2.89.61-4.73,3.44-4.13,6.32Z"/><path class="e" d="M1835.41,88.49c.61,2.89,3.43,4.74,6.32,4.13,2.89-.61,4.74-3.44,4.13-6.32-.6-2.89-3.44-4.74-6.32-4.13-2.89.6-4.73,3.44-4.13,6.32Z"/><path class="e" d="M1630.22,161.93c.6,2.89,3.44,4.74,6.32,4.13,2.88-.61,4.73-3.44,4.13-6.33-.61-2.88-3.44-4.73-6.32-4.13-2.88.6-4.73,3.44-4.13,6.32Z"/><path class="e" d="M2440.3,182.5c.61,2.89,3.44,4.74,6.32,4.13,2.89-.61,4.74-3.44,4.13-6.33-.61-2.88-3.44-4.73-6.33-4.13-2.89.6-4.73,3.44-4.13,6.32Z"/><path class="e" d="M2371.87,233.05c.43,2.06,2.45,3.39,4.52,2.95,2.06-.43,3.38-2.45,2.95-4.52-.43-2.06-2.45-3.38-4.51-2.95-2.06.43-3.38,2.46-2.95,4.51Z"/><path class="e" d="M2519.49,172.97c.43,2.06,2.46,3.38,4.51,2.95,2.06-.44,3.38-2.46,2.95-4.52-.43-2.07-2.45-3.38-4.52-2.95-2.06.43-3.38,2.46-2.95,4.51Z"/><path class="e" d="M2417.43,252.06c.43,2.06,2.45,3.38,4.52,2.95,2.06-.43,3.38-2.46,2.95-4.52-.43-2.06-2.45-3.38-4.51-2.95-2.06.43-3.38,2.45-2.95,4.52Z"/><path class="e" d="M2295.94,392.92c.43,2.06,2.46,3.38,4.52,2.95,2.06-.43,3.38-2.46,2.95-4.52-.43-2.06-2.46-3.38-4.52-2.95-2.06.43-3.38,2.45-2.95,4.52Z"/><path class="e" d="M2399.77,466.75c.43,2.06,2.45,3.38,4.52,2.95,2.06-.43,3.38-2.45,2.95-4.51-.43-2.06-2.46-3.38-4.51-2.95-2.06.43-3.39,2.45-2.95,4.52Z"/><path class="e" d="M2205.1,231.13c.43,2.06,2.45,3.38,4.52,2.95,2.06-.43,3.38-2.46,2.95-4.52-.43-2.06-2.45-3.38-4.52-2.95-2.06.43-3.38,2.45-2.95,4.52Z"/><path class="e" d="M2007.49,283.12c.43,2.06,2.45,3.38,4.52,2.95s3.38-2.45,2.95-4.52c-.43-2.06-2.45-3.38-4.52-2.95-2.06.43-3.38,2.46-2.95,4.52Z"/><path class="e" d="M2091.77,341.8c.43,2.06,2.46,3.38,4.52,2.95,2.06-.43,3.38-2.45,2.95-4.52-.43-2.06-2.46-3.38-4.52-2.95-2.06.43-3.38,2.46-2.95,4.52Z"/><path class="e" d="M1694.94,507.19c3.17,2.07,7.43,1.18,9.5-1.99,2.07-3.17,1.18-7.43-1.99-9.5-3.18-2.07-7.43-1.18-9.5,1.99-2.07,3.17-1.18,7.43,1.99,9.5Z"/><path class="e" d="M1495.2,582.84c3.17,2.07,7.43,1.18,9.5-2,2.07-3.17,1.18-7.43-1.99-9.5-3.18-2.07-7.43-1.18-9.51,1.99-2.07,3.17-1.18,7.43,1.99,9.5Z"/><path class="e" d="M1663.49,416.58c2.47,1.61,5.78.92,7.39-1.55,1.61-2.47.92-5.78-1.55-7.39-2.47-1.61-5.78-.92-7.39,1.55-1.61,2.47-.92,5.78,1.55,7.39Z"/><path class="e" d="M1803.23,9.81c2.47,1.61,5.78.92,7.39-1.55,1.61-2.47.92-5.78-1.55-7.39-2.47-1.61-5.78-.92-7.39,1.55-1.62,2.47-.92,5.78,1.55,7.39Z"/><path class="e" d="M1493.99,437.53c2.47,1.61,5.78.92,7.39-1.55,1.61-2.47.92-5.78-1.55-7.39-2.47-1.61-5.78-.92-7.39,1.55-1.61,2.47-.92,5.78,1.55,7.39Z"/><path class="e" d="M1856.12,395.09c2.47,1.62,5.78.92,7.39-1.55,1.61-2.47.92-5.78-1.55-7.39-2.47-1.61-5.78-.92-7.39,1.55-1.61,2.47-.92,5.78,1.55,7.39Z"/><path class="e" d="M1788.68,454.62c2.47,1.61,5.78.92,7.39-1.55,1.61-2.47.92-5.78-1.55-7.39-2.47-1.61-5.78-.92-7.39,1.55-1.61,2.47-.92,5.78,1.55,7.39Z"/><path class="e" d="M1396.72,704.3c2.47,1.61,5.78.92,7.39-1.55,1.61-2.47.92-5.77-1.55-7.39-2.47-1.61-5.78-.92-7.39,1.55-1.61,2.47-.92,5.78,1.55,7.39Z"/><path class="e" d="M1269.88,648.79c2.47,1.61,5.78.92,7.39-1.55,1.61-2.47.92-5.78-1.55-7.39s-5.78-.92-7.39,1.55c-1.62,2.47-.92,5.78,1.55,7.39Z"/><path class="e" d="M1764.09,287.54c2.47,1.61,5.78.91,7.39-1.55,1.61-2.47.92-5.78-1.55-7.39-2.47-1.62-5.78-.92-7.39,1.55-1.61,2.47-.92,5.78,1.55,7.39Z"/><path class="e" d="M1751.44,371.67c1.76,1.15,4.13.65,5.28-1.11,1.15-1.76.66-4.13-1.11-5.28s-4.13-.65-5.28,1.11c-1.15,1.76-.66,4.13,1.11,5.28Z"/><path class="e" d="M1813.34,224.8c1.76,1.15,4.13.66,5.28-1.11,1.15-1.77.66-4.13-1.11-5.28-1.76-1.16-4.13-.66-5.28,1.11-1.15,1.77-.65,4.13,1.11,5.28Z"/><path class="e" d="M1713,207.04c1.77,1.15,4.13.66,5.28-1.11,1.15-1.76.66-4.12-1.11-5.28-1.76-1.15-4.13-.65-5.28,1.11-1.15,1.76-.66,4.12,1.11,5.28Z"/><path class="e" d="M1683.31,48.28c1.77,1.15,4.13.65,5.28-1.11,1.15-1.76.66-4.13-1.11-5.28-1.76-1.15-4.13-.65-5.28,1.11-1.15,1.76-.66,4.12,1.11,5.28Z"/><path class="e" d="M1797.1,352.9c1.76,1.15,4.13.66,5.28-1.11,1.15-1.76.65-4.13-1.11-5.28-1.76-1.15-4.12-.66-5.28,1.11-1.15,1.76-.66,4.13,1.11,5.28Z"/><path class="e" d="M1810.79,538.41c1.76,1.15,4.13.66,5.28-1.11,1.15-1.76.66-4.13-1.11-5.28-1.76-1.15-4.13-.66-5.28,1.11-1.15,1.76-.66,4.13,1.11,5.28Z"/><path class="e" d="M1632.16,488.24c1.77,1.15,4.12.66,5.28-1.11,1.15-1.76.66-4.13-1.11-5.28-1.77-1.15-4.13-.66-5.28,1.11-1.15,1.76-.66,4.13,1.11,5.28Z"/><path class="e" d="M1529.19,664.73c1.76,1.15,4.13.66,5.28-1.11,1.15-1.76.66-4.13-1.11-5.28-1.76-1.15-4.13-.66-5.28,1.11-1.15,1.76-.66,4.13,1.11,5.28Z"/><path class="e" d="M313.63,480.36c.79-3.71-1.57-7.36-5.28-8.15-3.71-.79-7.36,1.57-8.15,5.28-.79,3.71,1.57,7.36,5.28,8.15,3.71.79,7.36-1.57,8.15-5.28Z"/><path class="e" d="M456.1,639.48c.79-3.71-1.58-7.36-5.28-8.15-3.71-.79-7.36,1.57-8.15,5.28-.79,3.71,1.57,7.36,5.28,8.15,3.71.79,7.35-1.57,8.15-5.28Z"/><path class="e" d="M240.41,542.31c.62-2.89-1.22-5.72-4.11-6.34-2.88-.61-5.72,1.22-6.34,4.11-.61,2.89,1.22,5.72,4.11,6.34,2.88.62,5.72-1.22,6.34-4.11Z"/><path class="e" d="M320.96,692.91c.62-2.88-1.22-5.72-4.11-6.34-2.88-.62-5.72,1.22-6.34,4.11-.62,2.88,1.23,5.72,4.11,6.34,2.88.61,5.72-1.23,6.34-4.11Z"/><path class="e" d="M151.03,370.33c.62-2.88-1.22-5.72-4.11-6.34-2.88-.62-5.72,1.22-6.34,4.11-.62,2.88,1.22,5.72,4.11,6.34,2.88.62,5.72-1.22,6.34-4.1Z"/><path class="e" d="M230.84,411.82c.62-2.88-1.22-5.72-4.11-6.34-2.88-.62-5.72,1.22-6.34,4.11-.62,2.88,1.22,5.72,4.11,6.34,2.88.62,5.72-1.22,6.34-4.11Z"/><path class="e" d="M604.86,687.64c.61-2.88-1.22-5.72-4.11-6.34-2.88-.62-5.72,1.22-6.34,4.11-.62,2.89,1.23,5.72,4.11,6.34,2.88.62,5.72-1.22,6.34-4.11Z"/><path class="e" d="M598.72,825.96c.62-2.89-1.22-5.72-4.11-6.34-2.88-.62-5.72,1.22-6.34,4.11-.62,2.89,1.22,5.72,4.11,6.34,2.88.62,5.72-1.22,6.33-4.1Z"/><path class="e" d="M83.81,494.9c.62-2.88-1.22-5.72-4.11-6.34-2.88-.62-5.72,1.22-6.34,4.11-.62,2.89,1.22,5.72,4.11,6.34,2.88.62,5.72-1.22,6.34-4.1Z"/><path class="e" d="M166.85,476.42c.44-2.06-.87-4.09-2.93-4.53-2.06-.44-4.09.87-4.53,2.93-.44,2.06.87,4.09,2.93,4.53,2.06.44,4.09-.87,4.53-2.93Z"/><path class="e" d="M7.55,471.52c.44-2.06-.88-4.08-2.93-4.53-2.06-.44-4.09.88-4.53,2.93-.44,2.06.87,4.09,2.94,4.53,2.06.44,4.09-.87,4.53-2.93Z"/><path class="e" d="M132.91,440.58c.44-2.06-.87-4.09-2.93-4.53-2.06-.44-4.09.87-4.53,2.93-.44,2.06.87,4.09,2.94,4.53,2.06.44,4.09-.87,4.52-2.93Z"/><path class="e" d="M301.05,361.03c.44-2.06-.87-4.09-2.93-4.53-2.06-.44-4.09.87-4.53,2.93-.44,2.06.87,4.09,2.93,4.53,2.06.44,4.09-.87,4.53-2.93Z"/><path class="e" d="M318.54,545.75c.44-2.06-.87-4.08-2.93-4.52-2.06-.44-4.09.87-4.53,2.93-.44,2.06.87,4.08,2.93,4.52,2.06.44,4.09-.87,4.53-2.93Z"/><path class="e" d="M520.26,578.3c.44-2.06-.88-4.09-2.93-4.53-2.06-.44-4.09.87-4.53,2.93-.44,2.06.87,4.09,2.93,4.52,2.06.44,4.09-.87,4.53-2.93Z"/><path class="e" d="M896.81,500.1c-2.06-3.18-6.31-4.09-9.5-2.03-3.18,2.06-4.09,6.31-2.03,9.5,2.06,3.18,6.31,4.09,9.49,2.03,3.19-2.06,4.09-6.31,2.03-9.5Z"/><path class="e" d="M1110.06,511.88c-2.06-3.18-6.31-4.09-9.49-2.03-3.18,2.06-4.09,6.31-2.03,9.5,2.06,3.18,6.31,4.09,9.5,2.03,3.18-2.06,4.09-6.31,2.03-9.5Z"/><path class="e" d="M888.84,595.68c-1.61-2.48-4.91-3.18-7.39-1.58-2.47,1.6-3.18,4.91-1.58,7.38,1.61,2.48,4.91,3.18,7.39,1.58,2.47-1.6,3.18-4.91,1.58-7.39Z"/><path class="e" d="M1052.29,645.22c-1.6-2.48-4.91-3.18-7.38-1.58-2.47,1.61-3.18,4.91-1.58,7.38,1.61,2.48,4.91,3.18,7.39,1.58,2.47-1.6,3.18-4.91,1.58-7.38Z"/><path class="e" d="M704.03,537.27c-1.6-2.48-4.91-3.18-7.38-1.58-2.48,1.6-3.18,4.91-1.58,7.38,1.6,2.47,4.91,3.18,7.38,1.58,2.48-1.6,3.18-4.91,1.58-7.38Z"/><path class="e" d="M789.8,510.18c-1.6-2.48-4.91-3.18-7.38-1.58-2.48,1.6-3.18,4.91-1.58,7.38,1.6,2.48,4.91,3.18,7.38,1.58,2.47-1.61,3.18-4.91,1.58-7.39Z"/><path class="e" d="M1249.31,440.74c-1.61-2.48-4.91-3.18-7.38-1.58-2.48,1.6-3.18,4.91-1.58,7.38,1.6,2.48,4.91,3.18,7.38,1.58,2.48-1.6,3.18-4.91,1.58-7.38Z"/><path class="e" d="M1342.77,542.89c-1.6-2.48-4.91-3.18-7.38-1.58-2.48,1.6-3.18,4.91-1.58,7.38,1.61,2.48,4.91,3.18,7.38,1.58,2.48-1.6,3.18-4.91,1.58-7.38Z"/><path class="e" d="M744.58,672.89c-1.6-2.48-4.91-3.18-7.38-1.58-2.48,1.6-3.18,4.91-1.58,7.38,1.6,2.48,4.91,3.18,7.39,1.58,2.47-1.61,3.18-4.91,1.58-7.38Z"/><path class="e" d="M790.23,601.1c-1.15-1.77-3.51-2.27-5.28-1.12-1.77,1.14-2.27,3.51-1.12,5.27,1.14,1.77,3.5,2.27,5.27,1.13,1.77-1.15,2.27-3.51,1.13-5.28Z"/><path class="e" d="M674.12,710.29c-1.15-1.77-3.51-2.27-5.28-1.13-1.77,1.15-2.27,3.51-1.13,5.28,1.15,1.77,3.51,2.27,5.28,1.13,1.77-1.14,2.27-3.51,1.13-5.27Z"/><path class="e" d="M740.88,599.76c-1.15-1.77-3.51-2.27-5.28-1.13-1.76,1.14-2.27,3.5-1.13,5.28,1.15,1.77,3.51,2.27,5.28,1.12,1.77-1.14,2.27-3.5,1.13-5.27Z"/><path class="e" d="M803.54,424.62c-1.14-1.77-3.51-2.27-5.28-1.13-1.77,1.15-2.27,3.51-1.13,5.28,1.15,1.77,3.51,2.27,5.28,1.12,1.77-1.15,2.27-3.51,1.13-5.27Z"/><path class="e" d="M946.52,542.87c-1.15-1.77-3.51-2.27-5.28-1.12-1.77,1.15-2.27,3.5-1.13,5.27,1.15,1.77,3.51,2.28,5.28,1.13,1.77-1.14,2.27-3.5,1.13-5.28Z"/><path class="e" d="M1112.17,423.25c-1.15-1.77-3.51-2.28-5.28-1.13-1.76,1.15-2.27,3.5-1.13,5.27,1.15,1.77,3.51,2.27,5.28,1.13,1.77-1.15,2.27-3.5,1.12-5.27Z"/></g></svg>