<?xml version="1.0" encoding="UTF-8"?><svg id="b" xmlns="http://www.w3.org/2000/svg" viewBox="0 0 636.95 246.96"><defs><style>.d{fill:#fff;stroke-width:0px;}</style></defs><g id="c"><path class="d" d="M238.73,106.51l-2.67-.87c-11.22-3.65-23.64,1.34-28.7,12-.44.94-.82,1.89-1.14,2.86-1.59,4.88-1.53,10.12.21,15.04.78,2.21,1.86,4.25,3.21,6.09,2.69,3.67,2.99,8.58,1.03,12.69l-4.37,9.14c-.88,1.85-2.84,2.88-4.88,2.67-.03,0-.05,0-.08,0-2.63-.25-4.78-2.22-5.11-4.85l-4.61-36.74c-.31-2.44.89-4.81,3-6.06,4.94-2.93,8.89-7.7,10.65-13.91.94-3.31,1.11-6.81.52-10.19,0,0,0,0,0,0,8.57,2,18.03-.86,23.96-8.48,6.98-8.95,6.45-21.87-1.21-30.24-6.57-7.18-16.43-9.28-24.92-6.4-4.45,1.5-9.38.28-12.79-2.96l-6.05-5.76c-1.99-1.89-2.53-4.8-1.49-7.34,1.29-3.16,1.89-6.61,1.7-10.13-.28-5.39-2.44-10.58-6.08-14.57-9.27-10.17-25.11-10.2-34.43-.39l-1.66,2.27c-6.94,9.55-6.03,22.9,2.54,31.01.76.71,1.54,1.37,2.37,1.96,4.15,3.02,9.15,4.58,14.37,4.45,2.34-.06,4.62-.46,6.78-1.17,4.32-1.43,9.09-.19,12.38,2.94l7.35,6.98c1.48,1.41,1.86,3.59,1.04,5.46,0,.02-.02.05-.03.07-1.06,2.43-3.58,3.86-6.19,3.36l-36.36-6.96c-2.42-.47-4.3-2.33-4.84-4.73-1.25-5.61-4.57-10.83-9.93-14.42-2.86-1.92-6.13-3.17-9.54-3.66,4.56-7.53,4.76-17.41-.65-25.41-6.36-9.4-18.8-12.89-29.14-8.19-8.86,4.03-13.89,12.75-13.79,21.72.06,4.7-2.63,9.01-6.77,11.24l-7.35,3.99c-2.41,1.3-5.34.92-7.43-.86-2.61-2.21-5.7-3.83-9.11-4.76-5.22-1.4-10.82-.95-15.73,1.28-12.54,5.68-17.45,20.73-11.01,32.63l1.65,2.27c6.94,9.54,19.92,12.81,30.27,7.17.92-.5,1.78-1.04,2.6-1.65,4.15-3.01,7.18-7.29,8.67-12.3.67-2.24,1-4.53.99-6.81-.02-4.56,2.62-8.7,6.63-10.87l8.9-4.82c1.8-.98,3.99-.66,5.51.7.02.02.04.04.06.06,1.98,1.75,2.56,4.6,1.28,6.92l-17.86,32.43c-1.19,2.15-3.54,3.37-5.99,3.13-5.72-.54-11.72,1-16.8,4.99-2.7,2.13-4.9,4.85-6.41,7.93h0s0,.01,0,.02c-5.76-6.66-15.09-9.91-24.37-7.24C6.03,92.4-1.13,103.17.15,114.45c1.1,9.67,7.84,17.16,16.4,19.83,4.49,1.4,7.75,5.29,8.6,9.91l1.52,8.22c.5,2.7-.78,5.37-3.11,6.81-2.91,1.8-5.41,4.23-7.34,7.2-2.94,4.53-4.25,9.99-3.65,15.36,1.53,13.68,14.32,23.01,27.63,20.55l2.67-.87c11.22-3.65,18.34-14.98,16.17-26.58-.19-1.02-.44-2.01-.76-2.98-1.59-4.88-4.71-9.09-9.01-12.05-1.93-1.33-4.01-2.35-6.17-3.04-4.33-1.39-7.47-5.19-8.29-9.66l-1.84-9.96c-.37-2.01.61-4,2.37-5.03.02-.01.05-.03.07-.04,2.28-1.34,5.17-1.01,6.98.92l25.33,27.01c1.68,1.79,2.11,4.41,1.13,6.67-2.28,5.28-2.66,11.45-.44,17.51,1.19,3.23,3.11,6.16,5.58,8.56-8.12,3.42-14.09,11.29-14.42,20.94-.38,11.34,7.64,21.48,18.76,23.75,9.54,1.94,18.74-2.15,23.92-9.47,2.72-3.83,7.42-5.74,12.08-5.12l8.28,1.1c2.72.36,4.87,2.4,5.52,5.06.81,3.32,2.35,6.46,4.58,9.2,3.4,4.2,8.19,7.13,13.48,8.22,13.48,2.78,26.31-6.51,28.08-19.93v-2.81c0-11.79-8.58-22.07-20.28-23.59-1.03-.13-2.05-.2-3.07-.2-5.13,0-10.1,1.67-14.24,4.85-1.86,1.42-3.47,3.08-4.8,4.93-2.66,3.69-7.24,5.5-11.75,4.9l-10.04-1.33c-2.03-.27-3.61-1.81-4.05-3.81,0-.03-.01-.05-.02-.08-.57-2.58.63-5.23,3.03-6.35l33.51-15.74c2.23-1.05,4.85-.64,6.69.99,4.31,3.8,10.07,6.07,16.52,5.83,3.44-.13,6.82-1.05,9.86-2.66.74,8.77,6.38,16.89,15.46,20.18,10.67,3.87,22.79-.63,28.39-10.5,4.8-8.47,3.74-18.49-1.61-25.68-2.81-3.77-3.16-8.83-1.14-13.07l3.6-7.54c1.18-2.48,3.78-3.89,6.52-3.68,3.41.26,6.87-.24,10.17-1.51,5.04-1.93,9.31-5.59,11.98-10.28,6.81-11.97,1.93-27.03-10.27-32.87ZM169.81,36.3c-1.49,1.04-3.18,1.8-4.97,2.19-4.93,1.09-9.81-.29-13.33-3.64-5.82-5.53-6.05-14.75-.52-20.57,2.85-3,6.7-4.52,10.55-4.52,3.6,0,7.21,1.33,10.02,4,2.81,2.68,4.42,6.29,4.52,10.17.13,4.87-2.14,9.43-6.27,12.36ZM56.98,57.36c-.49,5.02-3.31,9.24-7.59,11.56-7.06,3.83-15.9,1.19-19.72-5.87-1.19-2.19-1.75-4.56-1.75-6.9,0-5.18,2.76-10.19,7.61-12.82,3.42-1.85,7.35-2.26,11.07-1.16,4.68,1.39,8.32,4.95,9.81,9.79.55,1.74.73,3.58.56,5.4ZM36.28,164.64c1.82.02,3.64.41,5.31,1.14,4.63,2.01,7.77,6,8.65,10.78,1.45,7.89-3.78,15.49-11.67,16.95h0c-7.89,1.45-15.49-3.79-16.95-11.67-.7-3.82.12-7.69,2.33-10.89,2.76-4.01,7.28-6.37,12.34-6.31ZM26.15,126.14h0c-5.03.93-10.14-.8-13.71-4.83-.8-.91-1.48-1.93-2-3.03-4.49-9.45,1.72-19.86,11.52-20.93,6.87-.75,13.46,3.6,15.46,10.21,2.55,8.44-2.85,17.01-11.28,18.57ZM137.22,218.61c.59-1.73,1.52-3.33,2.72-4.69,3.34-3.78,8.11-5.53,12.93-4.89,7.95,1.05,13.57,8.38,12.51,16.34h0c-1.05,7.95-8.39,13.56-16.34,12.51-3.85-.51-7.28-2.49-9.64-5.58-2.96-3.87-3.81-8.89-2.19-13.68ZM200.64,61.49c3.53-3.71,8.67-5.32,13.93-4.15,1.18.27,2.33.69,3.39,1.27,9.19,5.01,10.29,17.09,2.98,23.71-5.12,4.65-13,5-18.51.83-7.03-5.34-7.7-15.43-1.79-21.65ZM187.13,84.59l1.76.57c3.51,1.68,6.15,4.62,7.44,8.28,1.08,3.05,1.11,6.29.13,9.31-.2.61-.44,1.22-.72,1.81-4.02,8.4-15.11,11.19-22.76,4.66-.92-.79-1.73-1.7-2.4-2.71-2.97-4.49-3.3-9.88-1.1-14.5,1.7-3.56,4.71-6.24,8.46-7.51,2.97-1,6.2-.89,9.18.08ZM127.87,47.16c.52.38,1.02.79,1.49,1.25,6.76,6.41,5.98,17.82-2.6,23.08-1.04.63-2.15,1.12-3.32,1.45-5.2,1.44-10.42.09-14.14-3.44-2.86-2.72-4.47-6.41-4.52-10.37-.03-3.13,1.08-6.17,2.92-8.7l1.09-1.5c2.68-2.81,6.29-4.42,10.17-4.52,3.23-.08,6.32.88,8.9,2.76ZM88.14,23.51c0-2.59.7-5.21,2.11-7.62.62-1.04,1.38-2,2.27-2.83,7.6-7.19,19.42-4.51,23.47,4.49,2.83,6.3.74,13.91-4.93,17.86-7.24,5.03-17.06,2.55-21.15-4.99-1.17-2.16-1.76-4.52-1.76-6.91ZM48.42,102.81c.92-3.09,2.8-5.74,5.37-7.61.52-.38,1.07-.72,1.65-1.04,8.19-4.44,18.8-.18,21.15,9.61.28,1.17.4,2.4.35,3.6-.24,5.38-3.13,9.94-7.63,12.38-3.48,1.88-7.48,2.27-11.26,1.1-2.99-.93-5.54-2.93-7.38-5.46l-1.09-1.5c-1.85-3.42-2.26-7.35-1.15-11.08ZM97.48,216.36h0c-.67,5.07-3.89,9.4-8.83,11.54-1.11.48-2.29.81-3.5.97-10.38,1.35-18.36-7.77-16.34-17.43,1.41-6.76,7.58-11.69,14.49-11.54,8.82.18,15.3,7.97,14.18,16.46ZM102.3,184.39c-1.81,2.56-4.49,4.36-7.47,5.33l-1.76.57c-3.82.71-7.69-.12-10.89-2.33-2.66-1.83-4.6-4.44-5.58-7.46-.2-.61-.36-1.24-.48-1.89-1.69-9.16,5.64-17.94,15.67-17.15,1.21.09,2.4.36,3.54.78,5.04,1.89,8.48,6.05,9.41,11.09.72,3.88-.15,7.82-2.43,11.05ZM179.16,172.54c-.51,3.85-2.49,7.28-5.58,9.64-2.57,1.97-5.64,3-8.82,3-.64,0-1.29-.04-1.94-.13-9.24-1.22-15.31-10.91-11.47-20.21.46-1.12,1.08-2.17,1.84-3.12,3.36-4.21,8.38-6.19,13.45-5.52,3.92.52,7.39,2.56,9.75,5.73,1.87,2.51,2.76,5.62,2.76,8.75v1.85ZM167.83,147.33c-1.04-.14-2.08-.21-3.11-.21-11.6,0-21.72,8.61-23.29,20.42-.24,1.78-.26,3.55-.1,5.27.28,2.99-1.36,5.82-4.08,7.09l-28.63,13.45c-1.26.59-2.58,1.04-3.93,1.33,1.12-.86,2.17-1.81,3.11-2.87,5.01-5.58,7.05-12.88,5.72-20.09-.19-1.04-.45-2.04-.76-3.02-3.58-11.03-14.9-18-26.61-15.84-1.77.33-3.45.85-5.04,1.53-2.75,1.19-5.96.5-8.01-1.68l-21.63-23.07c-.95-1.02-1.78-2.13-2.47-3.32,1.16.8,2.39,1.49,3.68,2.06,6.85,3.05,14.43,2.72,20.87-.76.93-.5,1.81-1.05,2.64-1.66,9.39-6.82,12.51-19.74,6.84-30.21-.86-1.58-1.87-3.02-3.01-4.32-1.98-2.25-2.31-5.5-.87-8.13l15.25-27.71c.68-1.22,1.48-2.35,2.39-3.38-.4,1.35-.68,2.74-.83,4.15-.78,7.46,1.86,14.56,7.18,19.62.76.72,1.56,1.39,2.39,1.99,9.39,6.81,22.64,5.79,30.84-2.84,1.24-1.3,2.3-2.72,3.17-4.19,1.53-2.59,4.52-3.91,7.47-3.34l31.07,5.95c1.37.26,2.69.68,3.95,1.23,0,0,0,0,0,0-1.41.04-2.81.19-4.2.49-7.34,1.56-13.28,6.28-16.44,12.89-.45.95-.84,1.92-1.16,2.89-3.58,11.03,1.48,23.32,12.22,28.46,1.62.78,3.29,1.35,4.98,1.72,2.93.66,5.11,3.09,5.49,6.07l3.94,31.38c.17,1.38.18,2.77.04,4.14-.47-1.33-1.05-2.61-1.76-3.83-3.75-6.49-10.07-10.69-17.34-11.65ZM213.41,191.98c-1.92,10.29-13.07,15.06-21.62,10.16-6-3.44-8.77-10.82-6.5-17.35,2.9-8.33,12.3-12.09,20.04-8.39h0c4.62,2.21,7.74,6.61,8.25,11.96.12,1.21.06,2.43-.16,3.62ZM241.72,134c-1.68,3.51-4.62,6.15-8.28,7.44-4.59,1.62-9.63.88-13.69-2.15-1.46-1.09-2.7-2.47-3.62-4.04-2.56-4.35-2.76-9.42-.66-13.81,3.46-7.24,12.17-10.31,19.4-6.85h0c7.24,3.46,10.31,12.17,6.85,19.4Z"/><path class="d" d="M287.08,52.34h10.75c2,0,3.1,1.49,3.1,3.06s-1.1,2.99-3.1,2.99h-10.75v20.34c0,1.49-1.1,3.27-3.31,3.27-2.07,0-3.17-1.78-3.17-3.27v-45.45c0-1.49,1.1-3.2,3.31-3.2h17.09c2,0,3.1,1.42,3.1,2.99s-1.1,3.06-3.1,3.06h-13.92v16.22Z"/><path class="d" d="M318.24,78.72c0,1.49-1.1,3.27-3.31,3.27-2.07,0-3.17-1.78-3.17-3.27v-46.09c0-1.49,1.1-3.27,3.17-3.27,2.21,0,3.31,1.78,3.31,3.27v46.09Z"/><path class="d" d="M330.64,81.28c-2.07,0-3.17-1.56-3.17-3.13v-45.52c0-1.49,1.1-3.27,3.17-3.27,2.21,0,3.31,1.78,3.31,3.27v42.6h13.23c1.93,0,3.03,1.49,3.03,2.99,0,1.64-1.1,3.06-3.03,3.06h-16.54Z"/><path class="d" d="M364.2,78.72c0,1.49-1.1,3.27-3.31,3.27-2.07,0-3.17-1.78-3.17-3.27v-46.09c0-1.49,1.1-3.27,3.17-3.27,2.21,0,3.31,1.78,3.31,3.27v46.09Z"/><path class="d" d="M379.91,78.72c0,1.49-1.1,3.27-3.31,3.27-2.07,0-3.17-1.78-3.17-3.27v-45.45c0-1.49,1.1-3.2,3.31-3.2h7.44c8.68,0,14.82,6.19,14.82,14.44v.57c0,8.25-6.13,14.37-14.82,14.37h-4.27v19.27ZM384.18,53.4c4.2,0,8.34-2.56,8.34-8.39v-.43c0-5.83-4.13-8.46-8.34-8.46h-4.27v17.28h4.27Z"/><path class="d" d="M413.01,78.72c0,1.49-1.1,3.27-3.31,3.27-2.07,0-3.17-1.78-3.17-3.27v-46.09c0-1.49,1.1-3.27,3.17-3.27,2.21,0,3.31,1.78,3.31,3.27v46.09Z"/><path class="d" d="M443.61,32.64c0-1.49,1.1-3.27,3.31-3.27,2.07,0,3.17,1.78,3.17,3.27v45.02c0,2.63-1.1,4.34-3.24,4.34-1.58,0-2.89-.92-3.79-3.13l-14.68-33.21h-.34c.41,5.69.69,11.31.69,16.07v17c0,1.49-1.1,3.27-3.31,3.27-2.07,0-3.17-1.78-3.17-3.27v-45.02c0-2.7,1.1-4.34,3.24-4.34,1.58,0,2.83.92,3.79,3.27l14.68,33h.34c-.41-5.69-.69-11.1-.69-15.86v-17.14Z"/><path class="d" d="M458.91,42.31c0-7.4,5.24-12.94,13.37-12.94s13.37,5.55,13.37,12.94v26.81c0,7.33-5.24,12.87-13.37,12.87s-13.37-5.55-13.37-12.87v-26.81ZM465.39,42.66v26.03c0,5.05,3.45,7.25,6.89,7.25s6.89-2.21,6.89-7.25v-26.03c0-4.98-3.45-7.25-6.89-7.25s-6.89,2.28-6.89,7.25Z"/><path class="d" d="M533.68,30.08c1.93,0,3.03,1.42,3.03,2.99s-1.1,3.06-3.03,3.06h-7.92v42.6c0,1.49-1.1,3.27-3.31,3.27-2.07,0-3.17-1.78-3.17-3.27v-42.6h-7.92c-1.93,0-3.03-1.49-3.03-2.99,0-1.64,1.1-3.06,3.03-3.06h22.33Z"/><path class="d" d="M543.63,33.28c0-1.49,1.1-3.2,3.31-3.2h17.64c2,0,3.1,1.42,3.1,2.99s-1.1,3.06-3.1,3.06h-14.47v16.22h10.75c2,0,3.1,1.49,3.1,3.06s-1.1,2.99-3.1,2.99h-10.75v16.86h14.47c2,0,3.1,1.49,3.1,2.99,0,1.64-1.1,3.06-3.1,3.06h-17.64c-2.21,0-3.31-1.71-3.31-3.2v-44.81Z"/><path class="d" d="M594.52,67.06c0-1.49,1.03-3.27,3.17-3.27s3.31,1.78,3.31,3.27v2.06c0,7.33-5.31,12.87-13.44,12.87s-13.37-5.55-13.37-12.87v-26.81c0-7.4,5.24-12.94,13.44-12.94s12.61,5.62,12.61,10.6v.43c0,1.49-1.17,2.99-3.17,2.99s-2.89-1.49-3.38-3.13l-.21-.71c-.76-2.7-2.83-4.12-5.79-4.12-3.72,0-7.03,2.35-7.03,7.25v26.03c0,5.05,3.45,7.25,6.89,7.25s6.96-2.21,6.96-7.25v-1.64Z"/><path class="d" d="M636.95,78.72c0,1.49-1.1,3.27-3.24,3.27s-3.24-1.78-3.24-3.27v-20.27h-14.95v20.27c0,1.49-1.1,3.27-3.31,3.27-2.07,0-3.17-1.78-3.17-3.27v-46.09c0-1.49,1.1-3.27,3.17-3.27,2.21,0,3.31,1.78,3.31,3.27v19.7h14.95v-19.7c0-1.49,1.1-3.27,3.24-3.27s3.24,1.78,3.24,3.27v46.09Z"/><path class="d" d="M300.1,131.2c0-1.49,1.03-3.27,3.17-3.27s3.31,1.78,3.31,3.27v2.06c0,7.33-5.31,12.87-13.44,12.87s-13.37-5.55-13.37-12.87v-26.81c0-7.4,5.24-12.94,13.44-12.94s12.61,5.62,12.61,10.6v.43c0,1.49-1.17,2.99-3.17,2.99s-2.89-1.49-3.38-3.13l-.21-.71c-.76-2.7-2.83-4.12-5.79-4.12-3.72,0-7.03,2.35-7.03,7.25v26.03c0,5.05,3.45,7.25,6.89,7.25s6.96-2.21,6.96-7.25v-1.64Z"/><path class="d" d="M314.25,106.45c0-7.4,5.24-12.94,13.37-12.94s13.37,5.55,13.37,12.94v26.81c0,7.33-5.24,12.87-13.37,12.87s-13.37-5.55-13.37-12.87v-26.81ZM320.73,106.8v26.03c0,5.05,3.45,7.25,6.89,7.25s6.89-2.21,6.89-7.25v-26.03c0-4.98-3.45-7.25-6.89-7.25s-6.89,2.28-6.89,7.25Z"/><path class="d" d="M380.41,131.27c.07-11.73.14-13.94.62-22.05h-.34c-.76,3.06-3.51,10.6-4.62,13.58l-4.41,12.59c-.83,2.13-2.21,2.42-3.38,2.42-1.1,0-2.55-.28-3.31-2.42l-4.48-12.59c-.41-1.21-3.93-10.67-4.62-13.58h-.34c.55,7.61.69,14.58.69,22.05l.07,11.59c0,1.49-1.03,3.27-3.31,3.27-2.14,0-3.17-1.78-3.17-3.27v-45.02c0-2.7,1.1-4.34,3.31-4.34,1.79,0,3.17,1.14,4,3.27l10.96,30.3h.41l11.03-30.3c.83-2.13,2.14-3.27,3.93-3.27,2.27,0,3.38,1.64,3.38,4.34v45.02c0,1.49-1.1,3.27-3.31,3.27-2.07,0-3.17-1.78-3.17-3.27l.07-11.59Z"/><path class="d" d="M426.77,131.27c.07-11.73.14-13.94.62-22.05h-.34c-.76,3.06-3.51,10.6-4.62,13.58l-4.41,12.59c-.83,2.13-2.21,2.42-3.38,2.42-1.1,0-2.55-.28-3.31-2.42l-4.48-12.59c-.41-1.21-3.93-10.67-4.62-13.58h-.34c.55,7.61.69,14.58.69,22.05l.07,11.59c0,1.49-1.03,3.27-3.31,3.27-2.14,0-3.17-1.78-3.17-3.27v-45.02c0-2.7,1.1-4.34,3.31-4.34,1.79,0,3.17,1.14,4,3.27l10.96,30.3h.41l11.03-30.3c.83-2.13,2.14-3.27,3.93-3.27,2.27,0,3.38,1.64,3.38,4.34v45.02c0,1.49-1.1,3.27-3.31,3.27-2.07,0-3.17-1.78-3.17-3.27l.07-11.59Z"/><path class="d" d="M469.21,133.05c0,7.4-5.1,13.09-13.44,13.09s-13.44-5.69-13.44-13.09v-36.27c0-1.49,1.1-3.27,3.24-3.27s3.24,1.78,3.24,3.27v35.92c0,5.12,3.1,7.4,6.96,7.4s6.96-2.28,6.96-7.4v-35.92c0-1.49,1.03-3.27,3.17-3.27,2.27,0,3.31,1.78,3.31,3.27v36.27Z"/><path class="d" d="M499.72,96.77c0-1.49,1.1-3.27,3.31-3.27,2.07,0,3.17,1.78,3.17,3.27v45.02c0,2.63-1.1,4.34-3.24,4.34-1.58,0-2.89-.92-3.79-3.13l-14.68-33.21h-.34c.41,5.69.69,11.31.69,16.07v17c0,1.49-1.1,3.27-3.31,3.27-2.07,0-3.17-1.78-3.17-3.27v-45.02c0-2.7,1.1-4.34,3.24-4.34,1.58,0,2.83.92,3.79,3.27l14.68,33h.34c-.41-5.69-.69-11.1-.69-15.86v-17.14Z"/><path class="d" d="M522.02,142.86c0,1.49-1.1,3.27-3.31,3.27-2.07,0-3.17-1.78-3.17-3.27v-46.09c0-1.49,1.1-3.27,3.17-3.27,2.21,0,3.31,1.78,3.31,3.27v46.09Z"/><path class="d" d="M554.23,94.21c1.93,0,3.03,1.42,3.03,2.99s-1.1,3.06-3.03,3.06h-7.92v42.6c0,1.49-1.1,3.27-3.31,3.27-2.07,0-3.17-1.78-3.17-3.27v-42.6h-7.92c-1.93,0-3.03-1.49-3.03-2.99,0-1.64,1.1-3.06,3.03-3.06h22.33Z"/><path class="d" d="M584.13,96.06c.96-2.21,2.55-2.56,3.31-2.56,2.27,0,4.07,2.13,2.76,4.91l-10.47,22.76v21.69c0,1.49-1.1,3.27-3.31,3.27-2.07,0-3.17-1.78-3.17-3.27v-21.69l-10.34-22.76c-1.24-2.63.34-4.91,2.76-4.91.9,0,2.21.28,3.17,2.56l7.65,17.92,7.65-17.92Z"/><path class="d" d="M300.1,195.33c0-1.49,1.03-3.27,3.17-3.27s3.31,1.78,3.31,3.27v2.06c0,7.33-5.31,12.87-13.44,12.87s-13.37-5.55-13.37-12.87v-26.81c0-7.4,5.24-12.94,13.44-12.94s12.61,5.62,12.61,10.6v.43c0,1.49-1.17,2.99-3.17,2.99s-2.89-1.49-3.38-3.13l-.21-.71c-.76-2.7-2.83-4.12-5.79-4.12-3.72,0-7.03,2.35-7.03,7.25v26.03c0,5.05,3.45,7.25,6.89,7.25s6.96-2.21,6.96-7.25v-1.64Z"/><path class="d" d="M318.58,207.64c-.55,2.06-1.93,2.63-3.24,2.63-2.21,0-3.86-1.78-3.03-4.55l12.75-45.3c.55-1.71,1.86-2.77,3.24-2.77,1.52,0,2.83,1.07,3.31,2.77l12.75,45.3c.76,2.7-.83,4.55-3.03,4.55-1.31,0-2.69-.57-3.24-2.63l-2.55-9.67h-14.47l-2.48,9.67ZM322.64,192.06h11.3l-3.51-13.51c-.55-2.06-1.38-5.69-2-9.03h-.28c-.55,3.34-1.45,6.97-2,9.03l-3.51,13.51Z"/><path class="d" d="M373.37,160.91c0-1.49,1.1-3.27,3.31-3.27,2.07,0,3.17,1.78,3.17,3.27v45.02c0,2.63-1.1,4.34-3.24,4.34-1.58,0-2.89-.92-3.79-3.13l-14.68-33.21h-.34c.41,5.69.69,11.31.69,16.07v17c0,1.49-1.1,3.27-3.31,3.27-2.07,0-3.17-1.78-3.17-3.27v-45.02c0-2.7,1.1-4.34,3.24-4.34,1.58,0,2.83.92,3.79,3.27l14.68,33h.34c-.41-5.69-.69-11.1-.69-15.86v-17.14Z"/><path class="d" d="M392.5,209.56c-2.21,0-3.31-1.71-3.31-3.2v-44.81c0-1.49,1.1-3.2,3.31-3.2h7.72c8.96,0,15.3,5.48,15.3,12.73v.64c0,4.41-2.55,8.82-7.3,10.74,6,2.49,7.99,7.4,7.99,12.16v.57c0,8.25-6.27,14.37-15.23,14.37h-8.48ZM400.22,180.19c4.48,0,8.82-2.35,8.82-7.68v-.43c0-5.33-4.34-7.68-8.82-7.68h-4.62v15.79h4.62ZM400.97,203.51c4.48,0,8.75-2.92,8.75-8.75v-.43c0-5.83-4.34-8.04-8.75-8.04h-5.38v17.21h5.38Z"/><path class="d" d="M424.47,161.55c0-1.49,1.1-3.2,3.31-3.2h17.64c2,0,3.1,1.42,3.1,2.99s-1.1,3.06-3.1,3.06h-14.47v16.22h10.75c2,0,3.1,1.49,3.1,3.06s-1.1,2.99-3.1,2.99h-10.75v16.86h14.47c2,0,3.1,1.49,3.1,2.99,0,1.64-1.1,3.06-3.1,3.06h-17.64c-2.21,0-3.31-1.71-3.31-3.2v-44.81Z"/><path class="d" d="M468.07,187.72h-5.17v19.27c0,1.49-1.1,3.27-3.31,3.27-2.07,0-3.17-1.78-3.17-3.27v-45.45c0-1.49,1.1-3.2,3.31-3.2h7.44c8.68,0,14.82,6.19,14.82,14.44v.57c0,5.69-2.89,10.38-7.58,12.73l9.72,19.42c1.1,2.28-.48,4.77-2.76,4.77-1.24,0-2.34-.57-3.03-1.92l-10.27-20.62ZM467.18,181.68c4.2,0,8.34-2.56,8.34-8.39v-.43c0-5.83-4.13-8.46-8.34-8.46h-4.27v17.28h4.27Z"/><path class="d" d="M503.66,187.72h-5.17v19.27c0,1.49-1.1,3.27-3.31,3.27-2.07,0-3.17-1.78-3.17-3.27v-45.45c0-1.49,1.1-3.2,3.31-3.2h7.44c8.68,0,14.82,6.19,14.82,14.44v.57c0,5.69-2.89,10.38-7.58,12.73l9.72,19.42c1.1,2.28-.48,4.77-2.76,4.77-1.24,0-2.34-.57-3.03-1.92l-10.27-20.62ZM502.77,181.68c4.2,0,8.34-2.56,8.34-8.39v-.43c0-5.83-4.13-8.46-8.34-8.46h-4.27v17.28h4.27Z"/><path class="d" d="M532.44,207.64c-.55,2.06-1.93,2.63-3.24,2.63-2.21,0-3.86-1.78-3.03-4.55l12.75-45.3c.55-1.71,1.86-2.77,3.24-2.77,1.52,0,2.83,1.07,3.31,2.77l12.75,45.3c.76,2.7-.83,4.55-3.03,4.55-1.31,0-2.69-.57-3.24-2.63l-2.55-9.67h-14.47l-2.48,9.67ZM536.5,192.06h11.3l-3.51-13.51c-.55-2.06-1.38-5.69-2-9.03h-.28c-.55,3.34-1.45,6.97-2,9.03l-3.51,13.51Z"/></g></svg>